<svg width="119" height="50" viewBox="0 0 119 50" fill="none" xmlns="http://www.w3.org/2000/svg">
<g clip-path="url(#clip0_16410_11779)">
<path d="M109.914 25.0616L103.775 3.73521C103.492 2.9216 103.257 0 103.257 0H93.4568C92.9268 1.393 92.0392 2.67505 91.4228 3.80917C90.905 4.75838 84.9753 12.7096 80.3771 18.7253V18.713L73.7201 27.5271C73.3009 26.2451 72.9681 25.2219 72.9311 25.0616C72.475 23.4961 71.5504 20.3402 71.5504 20.3402C71.5504 20.3402 82.2016 6.79241 83.2864 5.42406C86.504 1.34369 88.3408 0 88.3408 0H78.2937C78.2937 0 78.1827 1.82446 77.2828 3.06953C76.802 3.80917 68.5424 14.1889 68.5424 14.1889C68.5424 14.1889 65.9413 4.79537 65.4605 3.27909C64.9674 1.76282 65.0537 0 65.0537 0H53.0094C53.4656 0.517752 54.8586 3.9571 54.8586 3.9571L60.8129 22.325L56.1284 28.3654L55.5983 26.6889C55.5243 26.5902 54.0943 21.9305 52.5656 16.9625C50.8521 11.4029 49.0399 5.43639 48.8919 4.98028C48.7687 4.5858 48.6454 3.69823 48.5344 2.77367C48.3865 1.41765 48.2756 0 48.2756 0H37.8832C37.8832 0 35.8861 4.36391 34.4931 6.37327C33.9507 7.17456 27.984 15.1627 21.3887 23.7056C21.0682 24.1248 20.7353 24.5562 20.4025 24.9753C18.7505 27.182 17.0123 29.4625 15.3727 31.5705C15.0769 31.9403 14.4358 32.7539 13.5975 33.8264C12.5743 35.1085 11.2676 36.7727 9.93619 38.4492C7.48296 41.5311 4.95576 44.6992 4.04351 45.7964C3.66135 46.2525 3.06962 46.8935 2.4409 47.5345C1.25743 48.7673 0 50 0 50H0.382161H2.86004H3.73532H9.72661H9.9855C9.9855 50 10.306 49.2234 11.058 47.8304C11.1197 47.7318 11.1813 47.5962 11.2553 47.4606C12.2168 46.0429 13.314 44.5143 13.5606 44.2678C14.0044 43.7993 25.4445 28.7845 25.4445 28.7845H45.5265C45.5265 28.7845 47.1784 33.4813 48.7317 37.9068C47.1167 40.0148 43.2951 44.9581 42.087 46.3881C41.1624 47.4729 38.512 50 38.512 50H47.1537L47.277 49.6672C47.3386 49.5192 47.6838 48.7426 48.3742 47.4606C48.4851 47.2633 48.6207 47.0414 48.7933 46.7702C48.9413 46.536 49.1262 46.2648 49.3358 45.9813C49.6809 45.5005 50.0877 44.9581 50.5685 44.3417L51.2096 43.5281L51.3822 43.2939L51.4685 43.5651L51.789 44.5513C51.8506 44.7239 51.8999 44.8841 51.9369 45.0074C51.9862 45.143 52.0109 45.2416 52.0355 45.3156C52.2574 46.1045 52.4793 47.0784 52.6889 48.2002C52.8492 49.0631 52.9231 49.8151 52.9478 49.9384L52.9601 50H55.8941H64.5729L64.6962 49.6672C64.7578 49.5192 65.103 48.7426 65.7933 47.4606C65.9043 47.2633 66.0399 47.0414 66.2125 46.7702C66.3604 46.536 66.5453 46.2648 66.7549 45.9813C67.1001 45.5005 67.5069 44.9581 67.9877 44.3417L68.6287 43.5281L68.8013 43.2939L68.8629 43.4788L68.8876 43.5651L69.2081 44.5513C69.2698 44.7239 69.3191 44.8841 69.356 45.0074C69.4054 45.143 69.43 45.2416 69.4547 45.3156C69.6766 46.1045 69.8985 47.0784 70.108 48.2002C70.2683 49.0631 70.3423 49.8151 70.3669 49.9384L70.3793 50H81.8564C81.8564 50 80.0442 46.8565 79.6374 45.8087C79.4525 45.3526 77.0856 37.9684 76.0624 34.788L79.0703 30.7692L80.5127 28.8708H100.348C100.348 28.8708 105.661 43.6021 106.216 45.5498C106.759 47.4975 106.808 50.0123 106.808 50.0123H118.975C117.089 48.644 112.257 31.6075 109.914 25.0616ZM43.4677 22.9413H30.1537H30.1168C30.1168 22.9413 38.5859 12.6356 40.0283 9.54142C40.1885 9.19625 40.2132 9.46746 40.2132 9.62771C40.2132 9.84961 40.1146 11.6987 40.4721 13.1287C40.9282 14.9285 43.517 22.9413 43.517 22.9413H43.4677ZM61.1951 44.1075C60.7389 42.8501 60.2705 41.4694 59.7897 40.0395L58.3474 35.4537L61.9594 30.7692L63.2168 29.142L66.1262 37.5863C65.1523 38.8807 62.9086 41.8886 61.1951 44.1075ZM85.0986 23.0153C85.0986 23.0153 93.5678 12.7096 95.0101 9.61539C95.1704 9.27022 95.1951 9.54142 95.1951 9.70168C95.1951 9.92357 95.0964 11.7727 95.4539 13.2027C95.9101 15.0025 98.5112 23.0153 98.5112 23.0153H85.0986Z" fill="white"/>
</g>
<defs>
<clipPath id="clip0_16410_11779">
<rect width="119" height="50" fill="white"/>
</clipPath>
</defs>
</svg>
