<?xml version="1.0" encoding="UTF-8"?><svg id="Layer_1" xmlns="http://www.w3.org/2000/svg" viewBox="0 0 362.54 103.91"><defs><style>.cls-1{fill:#fff;stroke-width:0px;}</style></defs><path class="cls-1" d="M148.49,57.47l11.7-16.16c.35-.49.07-.99-.49-.99h-6.36c-.35,0-.78.14-.99.49l-7.72,11.25-7.91-11.25c-.21-.35-.64-.49-.99-.49h-6.79c-.35,0-.57.28-.57.57,0,.14,0,.28.14.42l11.74,16.21-12.94,17.79c-.35.49-.07.99.42.99h6.43c.35,0,.78-.14.99-.5l8.95-12.89,9.08,12.89c.21.35.64.5.99.5h6.86c.35,0,.57-.28.57-.57,0-.14-.07-.28-.14-.42l-12.97-17.84Z"/><path class="cls-1" d="M122.37,26.82c.49,0,.85.35.85.85v4.81c0,.49-.35.85-.85.85h-22.84v14.28h20.5c.5,0,.85.35.85.85v4.74c0,.49-.35.85-.85.85h-20.5v15.62h22.84c.49,0,.85.35.85.85v4.95c0,.5-.35.85-.85.85h-26.72c-2.05,0-3.61-1.56-3.61-3.61V30.42c0-2.05,1.56-3.61,3.61-3.61h26.72"/><path class="cls-1" d="M185.64,39.19c-6.93,0-10.6,3.04-12.73,5.87v-3.89c0-.49-.35-.85-.85-.85h-5.59c-.49,0-.85.35-.85.85v46.59c0,.49.35.85.85.85h5.66c.49,0,.85-.35.85-.85v-16.05c2.05,2.83,5.73,5.66,12.65,5.66,11.24,0,17.82-8.48,17.82-19.09s-6.57-19.09-17.82-19.09ZM184.37,71.28c-6.93,0-11.66-4.67-11.66-12.94s4.74-13.08,11.66-13.08,11.59,4.81,11.59,13.08-4.67,12.94-11.59,12.94Z"/><path class="cls-1" d="M225.73,39.19c-9.83,0-17.67,7.07-17.67,18.81s6.93,19.37,18.59,19.37c6.72,0,12.3-2.97,15.77-7.07.21-.21.28-.42.28-.64s-.07-.42-.28-.64l-3.25-3.18c-.21-.21-.42-.28-.64-.28s-.42.14-.64.35c-2.69,2.9-6.15,5.37-11.17,5.37-7.32,0-10.84-4.51-11.38-11.03h27.14c.5,0,.85-.35.85-.85v-1.41c0-10.75-6.5-18.81-17.6-18.81ZM215.6,54.74c.84-5.9,3.93-9.76,10.08-9.76s9.61,3.61,10.11,9.76h-20.19Z"/><path class="cls-1" d="M344.43,40.32h-5.59c-.49,0-.85.35-.85.85v3.96c-2.12-2.83-5.8-5.87-12.87-5.87-11.1,0-17.67,8.48-17.67,19.09s6.58,19.09,17.67,19.09c7.07,0,10.75-3.04,12.87-5.87v3.89c0,.49.35.85.85.85h5.59c.49,0,.85-.35.85-.85v-34.29c0-.5-.35-.85-.85-.85ZM326.54,71.36c-6.93,0-11.59-4.81-11.59-13.08s4.67-12.94,11.59-12.94,11.66,4.67,11.66,12.94-4.74,13.08-11.66,13.08Z"/><path class="cls-1" d="M284.9,26.82h-5.66c-.49,0-.85.35-.85.85v17.46c-2.12-2.83-5.73-5.87-12.8-5.87-11.1,0-17.67,8.48-17.67,19.09s6.57,19.09,17.67,19.09c7.07,0,10.75-3.04,12.87-5.87v3.89c0,.49.35.85.85.85h5.59c.49,0,.85-.35.85-.85V27.66c0-.49-.35-.85-.85-.85ZM267.02,71.36c-6.93,0-11.59-4.81-11.59-13.08s4.67-12.94,11.59-12.94,11.66,4.67,11.66,12.94-4.74,13.08-11.66,13.08Z"/><path class="cls-1" d="M300.31,26.82c.49,0,.85.35.85.85v5.8c0,.49-.35.85-.85.85h-5.8c-.49,0-.85-.35-.85-.85v-5.8c0-.49.35-.85.85-.85h5.8"/><path class="cls-1" d="M300.24,40.32c.49,0,.85.35.85.85v34.29c0,.49-.35.85-.85.85h-5.66c-.49,0-.85-.35-.85-.85v-34.29c0-.49.35-.85.85-.85h5.66"/><path class="cls-1" d="M60.31,21.69H25.14c-6.78,0-12.28,5.5-12.28,12.28v35.17c0,6.78,5.5,12.28,12.28,12.28h35.17c6.78,0,12.28-5.5,12.28-12.28v-35.17c0-6.78-5.5-12.28-12.28-12.28ZM31.12,69.82c0,.47-.38.85-.85.85h-5.8c-.47,0-.85-.38-.85-.85v-5.8c0-.47.38-.85.85-.85h5.8c.47,0,.85.38.85.85v5.8ZM61.27,66.12l-5.73,5.73c-.42.42-1.06.14-1.06-.49v-25.84s-16.02,16.02-16.02,16.02c-.28.28-.57.42-1.06.42h-4.21c-.5,0-.85-.35-.85-.85v-4.22c0-.5.14-.78.42-1.06l16.02-16.02h-25.83c-.64,0-.92-.63-.5-1.06l5.73-5.73c.35-.35.71-.57,1.27-.57h28.56c2.12,0,3.82,1.7,3.82,3.82v28.57c0,.57-.21.92-.57,1.27Z"/></svg>