<?xml version="1.0" encoding="UTF-8"?>
<svg id="Layer_1" data-name="Layer 1" xmlns="http://www.w3.org/2000/svg" viewBox="0 0 600 200">
  <defs>
    <style>
      .cls-1 {
        fill: #fff;
      }
    </style>
  </defs>
  <path class="cls-1" d="M566.67,149.6h33.33V0h-33.33v149.6ZM499.8,122.62c-12.3,0-21.43-9.52-21.43-22.62s9.13-22.62,21.43-22.62,21.43,9.52,21.43,22.62-9.13,22.62-21.43,22.62ZM494.25,152.78c11.31,0,21.43-4.37,28.97-11.71v8.53h30.36V50.4h-30.36v8.53c-7.54-7.34-17.66-11.71-28.97-11.71-28.37,0-50.2,23.21-50.2,52.78s21.83,52.78,50.2,52.78ZM155.16,122.62c-12.3,0-21.43-9.52-21.43-22.62s9.13-22.62,21.43-22.62,21.43,9.52,21.43,22.62-9.13,22.62-21.43,22.62ZM149.6,152.78c11.31,0,21.43-4.37,28.97-11.71v8.53h30.36V50.4h-30.36v8.53c-7.54-7.34-17.66-11.71-28.97-11.71-28.37,0-50.2,23.21-50.2,52.78s21.83,52.78,50.2,52.78ZM379.37,68.06V30.75h11.51c9.33,0,13.89,2.18,17.26,5.36s5.36,7.94,5.36,13.29-1.98,10.12-5.36,13.29-7.94,5.36-17.26,5.36h-11.51ZM344.64,149.6h34.72v-50.79h16.47c17.86,0,30.36-5.36,39.09-14.29,8.93-9.13,14.29-21.43,14.29-35.12s-5.36-25.99-14.29-35.12c-8.73-8.93-21.23-14.29-39.09-14.29h-51.19v149.6ZM227.38,200h35.32l74.8-149.6h-35.32l-22.62,47.22h-.2l-25.6-47.22h-37.7l45.83,80.95-34.52,68.65ZM34.72,68.06V30.75h11.51c9.33,0,13.89,2.18,17.26,5.36s5.36,7.94,5.36,13.29-1.98,10.12-5.36,13.29-7.94,5.36-17.26,5.36h-11.51ZM0,149.6h34.72v-50.79h16.47c17.86,0,30.36-5.36,39.09-14.29,8.93-9.13,14.29-21.43,14.29-35.12s-5.36-25.99-14.29-35.12C81.55,5.36,69.05,0,51.19,0H0v149.6Z"/>
</svg>