<svg width="180" height="64" viewBox="0 0 180 64" fill="none" xmlns="http://www.w3.org/2000/svg">
<path d="M31.0409 63.0616L4.35398 45.6083C4.35398 45.6083 1.00188 43.6748 0.23531 40.0692C-0.843079 35.0135 2.70391 30.6763 2.70391 30.6763L37.3293 53.3552C40.0058 55.1057 40.7334 58.6852 39.0183 61.3895C37.2643 64.146 33.6394 64.76 31.0409 63.0616Z" fill="white"/>
<path d="M5.76846 26.926C5.76846 26.926 1.67578 24.4439 1.67578 18.7088C1.67578 12.9869 5.75547 10.5439 5.75547 10.5439L20.3462 0.941961C23.0227 -0.808601 26.5957 -0.0378311 28.3367 2.64027C30.0777 5.33143 29.3111 8.924 26.6476 10.6746L14.3566 18.7219L35.3007 32.439C35.3007 32.439 39.0686 34.6076 39.8092 38.2786C40.8486 43.3996 37.3406 47.6062 37.3406 47.6062L5.76846 26.926Z" fill="white"/>
<path d="M33.2248 13.001C31.8606 13.001 30.8861 13.4321 29.9247 14.0592L22.8047 18.723L29.9247 23.3868C30.8861 24.0138 31.8865 24.4449 33.2248 24.4449C36.369 24.4449 38.9156 21.8844 38.9156 18.723C38.9156 15.5615 36.356 13.001 33.2248 13.001Z" fill="white"/>
<path d="M5.69078 63.9889C7.055 63.9889 8.02945 63.5578 8.99091 62.9307L16.1109 58.2669L8.99091 53.6031C8.02945 52.976 7.02902 52.5449 5.69078 52.5449C2.54656 52.558 0 55.1185 0 58.28C0 61.4414 2.54656 63.9889 5.69078 63.9889Z" fill="white"/>
<path d="M60.7689 50.8738C62.5749 50.8738 64.2639 50.3773 65.5762 49.2408V51.8013C64.108 52.8203 62.367 53.2514 60.5221 53.2514C55.8967 53.2514 52.6875 50.0246 52.6875 45.3739C52.6875 40.7492 56.0006 37.5225 60.587 37.5225C62.393 37.5225 64.082 38.045 65.4203 39.064V41.8597C64.225 40.5663 62.5749 39.887 60.7299 39.887C57.5208 39.887 55.2471 42.134 55.2471 45.3739C55.26 48.6006 57.5467 50.8738 60.7689 50.8738Z" fill="white"/>
<path d="M70.8136 52.9624H68.332V32.9746L70.8136 34.5161V40.3688C71.944 38.6182 73.75 37.5078 76.0497 37.5078C79.8435 37.5078 81.8704 40.3035 81.8704 44.0397V52.9754H79.3628V44.4708C79.3628 41.5184 78.0765 39.9507 75.439 39.9507C72.6586 39.9507 70.8136 42.3545 70.8136 45.3722V52.9624Z" fill="white"/>
<path d="M97.2775 50.3757C96.0173 52.1655 94.0943 53.2367 91.7297 53.2367C87.3252 53.2367 84.168 49.9446 84.168 45.4507C84.168 40.8652 87.3252 37.5078 91.7297 37.5078C94.0943 37.5078 96.0173 38.6182 97.2775 40.4341V37.7822H99.7851V52.9624H97.2775V50.3757ZM86.7405 45.4245C86.7405 48.5599 88.9103 50.8722 91.9765 50.8722C95.0688 50.8722 97.2775 48.5599 97.2775 45.4245C97.2775 42.2239 95.0688 39.8854 91.9765 39.8854C88.9103 39.8854 86.7405 42.2239 86.7405 45.4245Z" fill="white"/>
<path d="M106.122 52.9628H103.641V37.7825H106.122V41.0093C107.318 38.7623 109.24 37.4951 111.631 37.4951V40.3561C108.63 39.925 106.122 41.963 106.122 45.7123V52.9628Z" fill="white"/>
<path d="M137.048 46.3521H125.134C125.497 49.0955 127.641 50.9114 130.642 50.9114C132.578 50.9114 134.436 50.3627 136.034 49.2131V51.6168C134.41 52.7272 132.578 53.2498 130.642 53.2498C125.9 53.2498 122.496 50.1667 122.496 45.516C122.496 40.9567 125.38 37.5078 129.941 37.5078C134.293 37.5078 137.139 40.7346 137.139 45.0849C137.152 45.516 137.113 45.9471 137.048 46.3521ZM125.173 44.3141H134.514C134.267 41.7274 132.643 39.8201 129.98 39.8201C127.225 39.8201 125.575 41.7536 125.173 44.3141Z" fill="white"/>
<path d="M142.353 52.9628H139.871V37.7825H142.353V41.0093C143.548 38.7623 145.471 37.4951 147.862 37.4951V40.3561C144.86 39.925 142.353 41.963 142.353 45.7123V52.9628Z" fill="white"/>
<path d="M162.591 46.3521H150.677C151.04 49.0955 153.184 50.9114 156.185 50.9114C158.121 50.9114 159.979 50.3627 161.577 49.2131V51.6168C159.953 52.7272 158.121 53.2498 156.185 53.2498C151.443 53.2498 148.039 50.1667 148.039 45.516C148.039 40.9567 150.923 37.5078 155.484 37.5078C159.836 37.5078 162.682 40.7346 162.682 45.0849C162.682 45.516 162.656 45.9471 162.591 46.3521ZM150.716 44.3141H160.057C159.81 41.7274 158.186 39.8201 155.523 39.8201C152.768 39.8201 151.105 41.7536 150.716 44.3141Z" fill="white"/>
<path d="M177.485 50.3618C176.263 52.1777 174.301 53.2881 171.937 53.2881C167.532 53.2881 164.375 49.996 164.375 45.502C164.375 40.9166 167.532 37.5592 171.937 37.5592C174.301 37.5592 176.25 38.6957 177.485 40.5508V32.9868L179.992 34.5284V52.9746H177.485V50.3618ZM166.961 45.4628C166.961 48.5982 169.13 50.9105 172.197 50.9105C175.289 50.9105 177.498 48.5982 177.498 45.4628C177.498 42.2622 175.289 39.9237 172.197 39.9237C169.13 39.9237 166.961 42.2622 166.961 45.4628Z" fill="white"/>
<path d="M115.978 47.9201C115.978 50.0495 117.264 50.8725 118.888 50.8725C120.109 50.8725 121.344 50.5328 122.409 49.7621V52.192C121.37 52.9627 119.927 53.2632 118.667 53.2632C115.458 53.2632 113.496 51.8131 113.496 47.7241V32.9619L115.978 34.5035V47.9201Z" fill="white"/>
<path d="M119.977 37.5863C119.354 37.1682 118.535 37.1551 117.898 37.5732C116.716 38.3309 116.716 40.0684 117.898 40.8261L117.95 40.8653C118.574 41.2703 119.38 41.2703 120.016 40.8653L122.485 39.2715L119.977 37.5863Z" fill="white"/>
<path d="M57.8626 28.9762C59.6425 28.9762 60.9288 28.2055 60.9288 26.8207C60.9288 25.9846 60.5001 25.3445 59.3697 24.8742L55.7837 23.4241C53.9518 22.6272 52.9384 21.5821 52.9384 19.6094C52.9384 16.9575 55.0562 15.2983 58.1094 15.2983C59.8894 15.2983 61.5395 15.7948 62.7088 16.6831V19.2959C61.3316 18.0679 59.6425 17.3624 58.1484 17.3624C56.5503 17.3624 55.4199 18.1071 55.4199 19.3351C55.4199 20.2626 55.8487 20.8113 57.044 21.2685L60.63 22.7186C62.5529 23.5547 63.4494 24.7174 63.4494 26.3504C63.4494 29.2506 61.1237 31.0273 57.8496 31.0273C55.8617 31.0273 54.0557 30.4786 52.7305 29.4857V26.7815C54.3156 28.31 56.0826 28.9762 57.8626 28.9762Z" fill="white"/>
<path d="M68.1535 25.6837C68.1535 27.8132 69.4397 28.6362 71.0638 28.6362C72.2851 28.6362 73.5194 28.2965 74.5848 27.5258V29.9556C73.5454 30.7264 72.1032 31.0269 70.8429 31.0269C67.6338 31.0269 65.6719 29.5768 65.6719 25.4878V12.2671L68.1535 10.7256V25.6837Z" fill="white"/>
<path d="M88.4611 28.179C87.2009 29.9687 85.2779 31.04 82.9133 31.04C78.5088 31.04 75.3516 27.7479 75.3516 23.2539C75.3516 18.6685 78.5088 15.311 82.9133 15.311C85.2779 15.311 87.2009 16.4215 88.4611 18.2373V15.5854H90.9687V30.7656H88.4611V28.179ZM77.9241 23.2278C77.9241 26.3631 80.0939 28.6754 83.1601 28.6754C86.2524 28.6754 88.4611 26.3631 88.4611 23.2278C88.4611 20.0271 86.2524 17.6887 83.1601 17.6887C80.0939 17.6756 77.9241 20.014 77.9241 23.2278Z" fill="white"/>
<path d="M97.3058 30.7656H94.8242V15.5854H97.3058V18.172C98.4362 16.4215 100.242 15.311 102.542 15.311C106.336 15.311 108.363 18.1067 108.363 21.843V30.7787H105.855V22.2741C105.855 19.3216 104.569 17.754 101.931 17.754C99.1508 17.754 97.3058 20.1577 97.3058 23.1755V30.7656Z" fill="white"/>
<path d="M123.77 28.1136C122.548 29.9295 120.587 31.0399 118.222 31.0399C113.817 31.0399 110.66 27.7478 110.66 23.2539C110.66 18.6684 113.817 15.311 118.222 15.311C120.587 15.311 122.535 16.4476 123.77 18.3026V12.2671L126.277 10.7256V30.7656H123.77V28.1136ZM113.233 23.2277C113.233 26.3631 115.402 28.6754 118.469 28.6754C121.561 28.6754 123.77 26.3631 123.77 23.2277C123.77 20.0271 121.561 17.6886 118.469 17.6886C115.402 17.6756 113.233 20.014 113.233 23.2277Z" fill="white"/>
<path d="M169.703 28.1136C168.482 29.9295 166.52 31.0399 164.155 31.0399C159.751 31.0399 156.594 27.7478 156.594 23.2539C156.594 18.6684 159.751 15.311 164.155 15.311C166.52 15.311 168.469 16.4476 169.703 18.3026V12.2671L172.211 10.7256V30.7656H169.703V28.1136ZM159.166 23.2277C159.166 26.3631 161.336 28.6754 164.402 28.6754C167.495 28.6754 169.703 26.3631 169.703 23.2277C169.703 20.0271 167.495 17.6886 164.402 17.6886C161.349 17.6756 159.166 20.014 159.166 23.2277Z" fill="white"/>
<path d="M142.078 28.179C140.818 29.9687 138.895 31.04 136.53 31.04C132.126 31.04 128.969 27.7479 128.969 23.2539C128.969 18.6685 132.126 15.311 136.53 15.311C138.895 15.311 140.818 16.4215 142.078 18.2373V15.5854H144.586V30.7656H142.078V28.179ZM131.541 23.2278C131.541 26.3631 133.711 28.6754 136.777 28.6754C139.87 28.6754 142.078 26.3631 142.078 23.2278C142.078 20.0271 139.87 17.6887 136.777 17.6887C133.724 17.6756 131.541 20.014 131.541 23.2278Z" fill="white"/>
<path d="M150.931 30.766H148.449V15.5857H150.931V18.8125C152.126 16.5655 154.049 15.2983 156.44 15.2983V18.1593C153.438 17.7282 150.931 19.7662 150.931 23.5155V30.766Z" fill="white"/>
<path d="M71.6482 18.8253C72.2848 19.2433 73.0904 19.2433 73.727 18.8384C74.9094 18.0807 74.9094 16.3432 73.727 15.5855L73.6751 15.5463C73.0384 15.1413 72.2329 15.1413 71.6092 15.5593L69.1406 17.1531L71.6482 18.8253Z" fill="white"/>
</svg>
