<svg width="437" height="128" viewBox="0 0 437 128" fill="none" xmlns="http://www.w3.org/2000/svg">
<path d="M414.978 67.4946H398.149V11.8821H415.405C429.33 11.8821 436.078 20.681 436.078 39.5602C436.078 58.8665 428.988 67.4946 414.978 67.4946ZM410.792 22.3895V57.4143H414.807C420.018 57.4143 422.752 55.5349 422.752 43.6606V34.6055C422.752 24.1835 420.018 22.3895 414.637 22.3895H410.792Z" fill="white"/>
<path d="M388.979 67.4946H361.216V11.8821H373.944V57.2434H388.979V67.4946Z" fill="white"/>
<path d="M351.262 67.4946H321.363V11.8821H350.066V22.4749H334.006V34.6909H347.418V44.6003H334.006V57.2434H351.262V67.4946Z" fill="white"/>
<path d="M309.347 67.4946H296.619V11.8821H309.347V67.4946Z" fill="white"/>
<path d="M270.235 67.4946H257.506V11.8821H286.124V22.4749H270.235V36.4848H283.476V46.4797H270.235V67.4946Z" fill="white"/>
<path d="M220.491 67.4946H209.728V11.8821H222.627L232.793 35.9723L238.26 55.962L235.099 30.3341V11.8821H245.863V67.4946H233.391L222.712 42.7209L217.501 23.0729L220.491 48.7008V67.4946Z" fill="white"/>
<path d="M186.913 59.8916H173.757L171.963 67.4946H161.029L175.551 11.8821H187.511L201.777 67.4946H188.621L186.913 59.8916ZM175.807 51.4344H185.033L181.958 37.7662L180.506 23.6709L178.968 37.7662L175.807 51.4344Z" fill="white"/>
<path d="M396.016 116.881V105.05H385.039V116.881H378.76V89.0752H385.039V100.309H396.016V89.0752H402.295V116.881H396.016Z" fill="white"/>
<path d="M356.889 115.472C354.925 116.583 352.234 117.48 348.219 117.48C338.993 117.48 335.234 111.243 335.234 102.914C335.234 94.4999 339.334 88.5627 348.56 88.5627C352.105 88.5627 354.583 89.2462 356.633 90.2286L355.394 94.6707C352.874 93.8592 351.251 93.432 348.646 93.432C344.673 93.432 341.897 94.7561 341.897 102.06V103.555C341.897 111.243 344.545 112.909 348.731 112.909C351.55 112.909 353.216 112.269 355.651 111.243L356.889 115.472Z" fill="white"/>
<path d="M301.303 116.881V93.6882H293.358V89.0752H315.569V93.6882H307.582V116.881H301.303Z" fill="white"/>
<path d="M255.33 116.881H249.905L260.199 89.0752H266.692L276.43 116.881H269.852L268.272 112.098H257.038L255.33 116.881ZM261.822 98.1731L258.32 108.296H267.076L263.744 98.1731L262.805 93.3892L261.822 98.1731Z" fill="white"/>
<path d="M209.53 116.881H203.08L195.862 89.0752H202.482L205.985 104.366L206.796 113.08L207.864 104.964L211.665 89.0752H217.731L221.703 104.964L222.814 113.08L223.668 104.366L227.256 89.0752H232.851L225.59 116.881H219.311L215.424 101.291L214.484 93.7736L213.545 101.291L209.53 116.881Z" fill="white"/>
<path d="M102.309 55.7163C104.309 57.1723 104.524 60.0758 102.759 61.8099L93.2315 71.1725C91.6527 72.724 89.1145 72.7001 87.5651 71.1193L57.1518 40.0893C55.5889 38.4948 53.0238 38.4864 51.4505 40.0708L40.4668 51.1323C38.9047 52.7056 36.3615 52.7101 34.7938 51.1423L19.9512 36.2989C17.775 34.1227 18.7651 30.4073 21.7356 29.6025L50.6061 21.7806C52.9482 21.1461 55.4518 21.6077 57.4136 23.0357L102.309 55.7163Z" fill="black" fill-opacity="0.1"/>
<path fill-rule="evenodd" clip-rule="evenodd" d="M21.8832 49.7691C23.9683 51.8542 23.9683 55.2347 21.8832 57.3198L1.5671 77.6359C-0.517963 79.721 -0.517961 83.1015 1.5671 85.1866L42.8167 126.436C44.9018 128.521 48.2824 128.521 50.3674 126.436L70.7025 106.101C72.7875 104.016 76.1681 104.016 78.2532 106.101L98.5881 126.436C100.673 128.521 104.054 128.521 106.139 126.436L126.474 106.101C128.559 104.016 128.559 100.635 126.474 98.5502L106.156 78.2322C104.071 76.1471 104.071 72.7665 106.156 70.6815L126.473 50.3648C128.558 48.2798 128.558 44.8992 126.473 42.8141L85.2229 1.56454C83.1379 -0.520519 79.7573 -0.52052 77.6723 1.56454L57.3371 21.8997C55.252 23.9848 55.252 27.3654 57.3371 29.4504L98.5695 70.6829C100.655 72.7679 100.655 76.1485 98.5695 78.2336L78.253 98.5501C76.168 100.635 72.7874 100.635 70.7024 98.5501L29.4688 57.3165C27.3837 55.2314 27.3837 51.8509 29.4688 49.7658L49.7849 29.4497C51.87 27.3646 51.87 23.9841 49.7849 21.899L29.4497 1.56379C27.3646 -0.521274 23.9841 -0.521264 21.899 1.5638L1.5638 21.899C-0.521263 23.9841 -0.521264 27.3646 1.5638 29.4497L21.8832 49.7691Z" fill="white"/>
</svg>
