<svg width="42" height="48" viewBox="0 0 42 48" fill="none" xmlns="http://www.w3.org/2000/svg">
<path d="M41.0693 12.2881V35.7109L20.7842 47.4229L0.5 35.7109V12.2881L20.7842 0.576172L41.0693 12.2881Z" fill="#B10300"/>
<path d="M41.0693 12.2881V35.7109L20.7842 47.4229L0.5 35.7109V12.2881L20.7842 0.576172L41.0693 12.2881Z" fill="url(#paint0_linear_1_49)"/>
<path d="M41.0693 12.2881V35.7109L20.7842 47.4229L0.5 35.7109V12.2881L20.7842 0.576172L41.0693 12.2881Z" stroke="#B98304"/>
<path d="M38.4746 10.8613C38.4546 10.8969 36.8888 13.6913 35.542 15.2217C33.674 17.3436 31.9106 17.7699 31.8711 17.7793C31.881 17.7861 32.4472 18.1692 33.5761 18.0576C34.6737 17.9488 35.7544 16.774 35.7656 16.7617C35.7478 16.7946 34.3903 19.2834 31.9287 19.4033C30.3492 19.4798 29.0296 18.2475 28.789 18.1035C28.6286 18.0079 28.3125 17.84 28.1064 17.9492C27.9009 18.0596 28.8793 19.0765 29.1181 19.3389C29.358 19.6028 31.8188 22.4572 31.1015 25.7539C30.5343 28.3608 28.1749 30.5025 26.5117 33.2031C25.0481 35.5804 25.6856 38.3326 25.6914 38.3574C25.6921 38.3247 25.7892 34.1571 30.6865 28.9385C33.6241 25.8085 37.7375 22.0525 41.5693 18.8105V20.5977C41.0951 20.9892 40.8154 21.2637 40.8154 21.2637C40.8154 21.2637 41.1074 21.1255 41.5693 20.9141V22.2949C39.3469 22.6395 35.0782 24.126 33.3125 27.0205C31.3294 30.271 31.872 33.1175 31.9463 33.6016C32.0201 34.0849 32.1663 35.0242 32.4619 35.9766C32.7568 36.9286 32.4614 38.0374 30.7988 38.499C29.1588 38.9547 27.1589 39.2517 27.1045 39.2598C27.1876 39.2733 31.503 39.9667 33.7187 38.7842C35.182 38.0023 33.2137 35.4551 33.2685 32.1133C33.2943 30.5442 33.6569 27.231 37.3711 24.7803C38.4983 24.0431 39.9949 23.6425 41.5693 23.4531V30.4932C41.3931 30.4302 41.2959 30.3955 41.2959 30.3955C41.2959 30.3955 41.3931 30.4453 41.5693 30.5371V34.1318C40.4643 33.0802 39.808 32.3916 39.7959 32.3789C39.8043 32.3929 40.424 33.4166 41.5693 34.8682V36L39.6357 37.1152C39.3879 36.5478 39.2663 36.1999 39.2627 36.1895C39.2654 36.2025 39.3437 36.5821 39.5117 37.1875L30.8203 42.2051C29.9792 42.0993 29.2413 41.9728 28.6445 41.8506L26.8076 41.376C26.8076 41.376 27.3574 42.2876 28.3818 43.6133L20.7851 48L8.92575 41.1533C10.6035 35.1549 13.3735 33.3906 16.624 30.791C19.8145 28.2395 22.2544 27.0775 23 25.3848C23.4144 24.4444 23.152 24.2434 23.0215 23.9404C22.8771 23.6066 22.8929 23.3568 22.9492 23.0117C23.0002 22.6997 23.1972 22.2334 23.1972 22.2334C23.1755 22.2218 22.2064 21.7117 20.5117 21.9023C18.7977 22.0953 16.467 22.6357 15.5097 22.6357C14.5689 22.6357 13.4901 22.4028 13.4521 22.3945L13.834 21.0391C13.8563 21.0364 14.8707 20.9175 15.8545 20.8584C17.4074 20.7649 18.4104 20.0452 18.4404 20.0234C18.3812 20.012 16.3709 19.6266 14.6718 19.4863C12.9465 19.3444 11.739 19.3672 9.91501 19.3672C7.99319 19.3673 6.09567 20.0537 6.09567 20.0537C6.09936 20.032 6.31014 18.8408 8.11618 18.2773C9.9394 17.7085 12.7739 17.5185 14.0312 17.542C15.2876 17.5659 15.7315 17.4239 16.1748 16.6895C16.6186 15.9549 18.0475 14.2252 20.6591 14.1299C23.2697 14.0354 24.7257 14.2981 27.9287 15.459C31.1324 16.6188 36.2319 13.0163 36.9218 12.4004C37.6045 11.7906 38.4575 10.8796 38.4746 10.8613ZM29.9648 42.6992L29.6338 42.8906C29.549 42.7843 29.468 42.6862 29.3965 42.5938C29.576 42.6296 29.766 42.6642 29.9648 42.6992ZM12.2978 19.8691C12.9136 19.8893 13.2889 19.9706 13.2939 19.9717C13.2805 20.0059 12.1013 23.0207 12.1006 24.5469C12.1006 26.0648 12.1455 27.6995 12.1465 27.7354C12.1128 27.7124 9.62866 26.019 7.24118 25.2803C4.71146 24.4977 1.99885 25.084 1.94528 25.0957C1.95483 25.1026 2.16844 25.248 3.28122 25.248C4.42139 25.2481 6.2014 25.3945 7.36618 25.7285C8.51691 26.0582 10.2284 26.9392 10.2705 26.9609C10.2705 26.9609 10.6493 29.1086 5.8652 29.1846C1.61955 29.2517 1.55075 28.5861 0.982391 26.8438C0.741807 26.1075 0.629222 25.5862 1.19528 25.085C1.86292 24.4932 3.17698 23.675 4.06931 22.8486C4.96162 22.0221 6.27634 20.3691 6.27634 20.3691C6.30943 20.3575 7.1261 20.0746 8.70407 19.9521C10.3147 19.8275 11.6775 19.8488 12.2978 19.8691ZM1.64255 27.1504C1.64255 27.1504 2.16112 28.0489 2.80759 28.2012C3.73843 28.4205 3.97593 28.4316 4.7402 28.4814C5.50358 28.5309 6.25952 28.5072 6.93845 28.4688C7.61999 28.4302 8.47928 28.2042 8.49802 28.1992C8.49283 28.1957 7.39589 27.456 6.4863 27.3311C5.57426 27.2066 5.37638 27.2829 3.84763 27.3076C3.08371 27.32 2.57556 27.2878 2.25876 27.2549L1.64255 27.1504ZM1.35544 25.7939C1.35188 25.7986 1.25973 25.9223 1.31833 26.2324C1.392 26.6183 1.5474 26.8218 1.55466 26.8311C1.54214 26.8361 1.41886 26.8949 2.49118 26.8721C3.61269 26.8485 4.18688 26.4957 5.75583 26.5635C7.53462 26.6404 9.46726 27.8159 9.49216 27.8311L9.67868 27.6982C9.77871 27.5877 9.86716 27.3525 9.86716 27.3525C9.83853 27.3379 7.98686 26.3963 6.52829 26.0635C5.05847 25.7285 3.91247 25.9002 2.96579 25.9238C2.49297 25.9357 2.11842 25.9111 1.86227 25.8828L1.35544 25.7939ZM22.0849 16.4658C20.5513 16.5888 20.1531 17.3889 20.1494 17.3965C20.1517 17.4047 20.3069 17.9286 21.4619 17.9248C22.4966 17.9211 23.4917 17.6458 24.206 17.5273C24.9209 17.409 26.3337 17.4371 26.58 18.3604C26.8257 19.2841 25.6062 20.2152 25.3554 20.5234C25.1081 20.8287 23.9237 21.8077 23.9013 21.8262C23.9327 21.8122 26.3626 20.7248 26.957 19.7412C27.4516 18.923 27.6964 18.2724 26.6123 17.7988C25.5279 17.3247 24.3858 16.2818 22.0849 16.4658ZM12.5986 15.1064C13.4291 15.1534 13.6568 15.2846 14.1865 15.3691C14.6486 15.4429 14.8132 15.5428 14.8213 15.5479C14.8762 15.7518 14.7513 15.9055 14.7002 16.0527C14.594 16.3576 14.4804 16.668 14.4804 16.668C14.4516 16.6659 12.8332 16.5507 11.6465 16.6914C10.4709 16.8306 9.05867 17.1292 9.00974 17.1396L10.914 15.4609C10.9352 15.4511 11.7786 15.0601 12.5986 15.1064Z" fill="white"/>
<path d="M41.0695 12.2881V35.7109L20.7844 47.4229L0.500198 35.7109V12.2881L20.7844 0.576172L41.0695 12.2881Z" stroke="#B98304"/>
<defs>
<linearGradient id="paint0_linear_1_49" x1="21" y1="27" x2="42" y2="13.5" gradientUnits="userSpaceOnUse">
<stop stop-color="#D51C24" stop-opacity="0"/>
<stop offset="1" stop-color="#D51C24"/>
</linearGradient>
</defs>
</svg>
