<?xml version="1.0" encoding="utf-8"?>
<!-- Generator: Adobe Illustrator 23.0.0, SVG Export Plug-In . SVG Version: 6.00 Build 0)  -->
<svg version="1.1" id="Layer_1" xmlns="http://www.w3.org/2000/svg" xmlns:xlink="http://www.w3.org/1999/xlink" x="0px" y="0px"
	 viewBox="0 0 334.72 62.38" style="enable-background:new 0 0 334.72 62.38;" xml:space="preserve">
<style type="text/css">
	.st0{clip-path:url(#SVGID_2_);fill:url(#SVGID_3_);}
	.st1{clip-path:url(#SVGID_5_);fill:url(#SVGID_6_);}
	.st2{clip-path:url(#SVGID_8_);fill:url(#SVGID_9_);}
	.st3{clip-path:url(#SVGID_11_);fill:url(#SVGID_12_);}
	.st4{clip-path:url(#SVGID_14_);fill:url(#SVGID_15_);}
	.st5{clip-path:url(#SVGID_17_);fill:url(#SVGID_18_);}
	.st6{clip-path:url(#SVGID_20_);fill:url(#SVGID_21_);}
	.st7{clip-path:url(#SVGID_23_);fill:url(#SVGID_24_);}
	.st8{clip-path:url(#SVGID_26_);fill:url(#SVGID_27_);}
	.st9{clip-path:url(#SVGID_29_);fill:url(#SVGID_30_);}
	.st10{clip-path:url(#SVGID_32_);fill:url(#SVGID_33_);}
	.st11{clip-path:url(#SVGID_35_);fill:url(#SVGID_36_);}
	.st12{clip-path:url(#SVGID_38_);fill:url(#SVGID_39_);}
	.st13{fill:#28ABE2;}
	.st14{fill:#00ADEE;}
	.st15{fill-rule:evenodd;clip-rule:evenodd;fill:#009FDB;}
</style>
<g>
	<g>
		<g>
			<g>
				<defs>
					<rect id="SVGID_1_" x="20.65" y="54.24" width="11.74" height="6.34"/>
				</defs>
				<clipPath id="SVGID_2_">
					<use xlink:href="#SVGID_1_"  style="overflow:visible;"/>
				</clipPath>
				
					<linearGradient id="SVGID_3_" gradientUnits="userSpaceOnUse" x1="208.0126" y1="644.1379" x2="208.8722" y2="644.1379" gradientTransform="matrix(0 -7.373 7.373 0 -4722.689 1594.2457)">
					<stop  offset="0" style="stop-color:#28ABE2"/>
					<stop  offset="0.113" style="stop-color:#2DADE3"/>
					<stop  offset="0.2496" style="stop-color:#3CB3E5"/>
					<stop  offset="0.3983" style="stop-color:#54BCE8"/>
					<stop  offset="0.5558" style="stop-color:#76CAED"/>
					<stop  offset="0.7201" style="stop-color:#A2DBF3"/>
					<stop  offset="0.8876" style="stop-color:#D7EFFA"/>
					<stop  offset="1" style="stop-color:#FFFFFF"/>
				</linearGradient>
				<rect x="20.65" y="54.24" class="st0" width="11.74" height="6.34"/>
			</g>
			<g>
				<defs>
					<rect id="SVGID_4_" x="20.65" y="54.24" width="11.74" height="6.34"/>
				</defs>
				<clipPath id="SVGID_5_">
					<use xlink:href="#SVGID_4_"  style="overflow:visible;"/>
				</clipPath>
				
					<linearGradient id="SVGID_6_" gradientUnits="userSpaceOnUse" x1="205.3956" y1="646.9921" x2="206.2552" y2="646.9921" gradientTransform="matrix(0 -7.854 7.854 0 -5054.9458 1673.9563)">
					<stop  offset="0" style="stop-color:#28ABE2"/>
					<stop  offset="0.113" style="stop-color:#2DADE3"/>
					<stop  offset="0.2496" style="stop-color:#3CB3E5"/>
					<stop  offset="0.3983" style="stop-color:#54BCE8"/>
					<stop  offset="0.5558" style="stop-color:#76CAED"/>
					<stop  offset="0.7201" style="stop-color:#A2DBF3"/>
					<stop  offset="0.8876" style="stop-color:#D7EFFA"/>
					<stop  offset="1" style="stop-color:#FFFFFF"/>
				</linearGradient>
				<rect x="20.65" y="54.24" class="st1" width="11.74" height="6.34"/>
			</g>
			<g>
				<defs>
					<rect id="SVGID_7_" x="20.65" y="17.05" width="11.73" height="34.41"/>
				</defs>
				<clipPath id="SVGID_8_">
					<use xlink:href="#SVGID_7_"  style="overflow:visible;"/>
				</clipPath>
				
					<linearGradient id="SVGID_9_" gradientUnits="userSpaceOnUse" x1="140.0956" y1="667.9253" x2="140.9552" y2="667.9253" gradientTransform="matrix(13.6417 0 0 13.6417 -1890.499 -9077.4023)">
					<stop  offset="0" style="stop-color:#28ABE2"/>
					<stop  offset="0.1477" style="stop-color:#5EC0E9"/>
					<stop  offset="0.3" style="stop-color:#8FD3F0"/>
					<stop  offset="0.4515" style="stop-color:#B7E3F5"/>
					<stop  offset="0.5993" style="stop-color:#D7EFFA"/>
					<stop  offset="0.7422" style="stop-color:#EDF8FD"/>
					<stop  offset="0.8783" style="stop-color:#FAFDFE"/>
					<stop  offset="1" style="stop-color:#FFFFFF"/>
				</linearGradient>
				<rect x="20.65" y="17.05" class="st2" width="11.73" height="34.41"/>
			</g>
			<g>
				<defs>
					<rect id="SVGID_10_" x="20.65" y="17.05" width="11.73" height="34.41"/>
				</defs>
				<clipPath id="SVGID_11_">
					<use xlink:href="#SVGID_10_"  style="overflow:visible;"/>
				</clipPath>
				
					<linearGradient id="SVGID_12_" gradientUnits="userSpaceOnUse" x1="172.9663" y1="682.2606" x2="173.8259" y2="682.2606" gradientTransform="matrix(0 -40.5143 40.5143 0 -27614.7715 7059.269)">
					<stop  offset="0" style="stop-color:#28ABE2"/>
					<stop  offset="0.1477" style="stop-color:#5EC0E9"/>
					<stop  offset="0.3" style="stop-color:#8FD3F0"/>
					<stop  offset="0.4515" style="stop-color:#B7E3F5"/>
					<stop  offset="0.5993" style="stop-color:#D7EFFA"/>
					<stop  offset="0.7422" style="stop-color:#EDF8FD"/>
					<stop  offset="0.8783" style="stop-color:#FAFDFE"/>
					<stop  offset="1" style="stop-color:#FFFFFF"/>
				</linearGradient>
				<rect x="20.65" y="17.05" class="st3" width="11.73" height="34.41"/>
			</g>
			<g>
				<defs>
					<path id="SVGID_13_" d="M1.41,40.99c-0.48,0.8-1.49,2.77-1.39,4.88c0.05,0.96,0.51,1.73,0.92,2.25l6.2,4.71l25.28-33.26V0.19
						L1.41,40.99z"/>
				</defs>
				<clipPath id="SVGID_14_">
					<use xlink:href="#SVGID_13_"  style="overflow:visible;"/>
				</clipPath>
				
					<linearGradient id="SVGID_15_" gradientUnits="userSpaceOnUse" x1="156.2137" y1="682.5189" x2="157.0733" y2="682.5189" gradientTransform="matrix(37.6988 0 0 37.6988 -5889.0474 -25703.6094)">
					<stop  offset="0" style="stop-color:#28ABE2"/>
					<stop  offset="0.7794" style="stop-color:#CFECF9"/>
					<stop  offset="1" style="stop-color:#FFFFFF"/>
				</linearGradient>
				<rect x="-0.08" y="0.19" class="st4" width="32.5" height="52.64"/>
			</g>
			<g>
				<defs>
					<path id="SVGID_16_" d="M1.41,40.99c-0.48,0.8-1.49,2.77-1.39,4.88c0.05,0.96,0.51,1.73,0.92,2.25l6.2,4.71l25.28-33.26V0.19
						L1.41,40.99z"/>
				</defs>
				<clipPath id="SVGID_17_">
					<use xlink:href="#SVGID_16_"  style="overflow:visible;"/>
				</clipPath>
				
					<linearGradient id="SVGID_18_" gradientUnits="userSpaceOnUse" x1="171.8959" y1="696.7263" x2="172.7555" y2="696.7263" gradientTransform="matrix(-51.7994 0 0 -51.7994 8946.1377 36116.4883)">
					<stop  offset="0" style="stop-color:#28ABE2"/>
					<stop  offset="0.7794" style="stop-color:#CFECF9"/>
					<stop  offset="1" style="stop-color:#FFFFFF"/>
				</linearGradient>
				<rect x="-0.08" y="0.19" class="st5" width="32.5" height="52.64"/>
			</g>
			<g>
				<defs>
					<path id="SVGID_19_" d="M0.01,45.25C0,45.46,0,45.67,0.01,45.88c0.06,1.15,0.7,2.04,1.16,2.53l10.21,8.57H34.8V45.25H0.01z"/>
				</defs>
				<clipPath id="SVGID_20_">
					<use xlink:href="#SVGID_19_"  style="overflow:visible;"/>
				</clipPath>
				
					<linearGradient id="SVGID_21_" gradientUnits="userSpaceOnUse" x1="156.8348" y1="682.9871" x2="157.6944" y2="682.9871" gradientTransform="matrix(40.4928 0 0 40.4928 -6350.6797 -27604.9336)">
					<stop  offset="0" style="stop-color:#28ABE2"/>
					<stop  offset="1" style="stop-color:#D7EFF7"/>
				</linearGradient>
				<rect x="0" y="45.25" class="st6" width="34.81" height="11.73"/>
			</g>
			<g>
				<defs>
					<polygon id="SVGID_22_" points="39.63,28.05 53.71,47.98 63.32,41.26 42.71,12.53 					"/>
				</defs>
				<clipPath id="SVGID_23_">
					<use xlink:href="#SVGID_22_"  style="overflow:visible;"/>
				</clipPath>
				
					<linearGradient id="SVGID_24_" gradientUnits="userSpaceOnUse" x1="152.6671" y1="679.4708" x2="153.5267" y2="679.4708" gradientTransform="matrix(27.5578 0 0 27.5578 -4167.5381 -18694.4473)">
					<stop  offset="0" style="stop-color:#28ABE2"/>
					<stop  offset="0.0965" style="stop-color:#31AFE3"/>
					<stop  offset="0.2574" style="stop-color:#4BB9E7"/>
					<stop  offset="0.4628" style="stop-color:#75C9EC"/>
					<stop  offset="0.7049" style="stop-color:#AFE0F4"/>
					<stop  offset="0.975" style="stop-color:#F8FCFE"/>
					<stop  offset="1" style="stop-color:#FFFFFF"/>
				</linearGradient>
				<rect x="39.63" y="12.53" class="st7" width="23.69" height="35.45"/>
			</g>
			<g>
				<defs>
					<polygon id="SVGID_25_" points="39.63,28.05 53.71,47.98 63.32,41.26 42.71,12.53 					"/>
				</defs>
				<clipPath id="SVGID_26_">
					<use xlink:href="#SVGID_25_"  style="overflow:visible;"/>
				</clipPath>
				
					<linearGradient id="SVGID_27_" gradientUnits="userSpaceOnUse" x1="154.58" y1="691.3452" x2="155.4396" y2="691.3452" gradientTransform="matrix(30.726 30.726 -30.726 30.726 16529.3125 -25976.4941)">
					<stop  offset="0" style="stop-color:#28ABE2"/>
					<stop  offset="0.0965" style="stop-color:#31AFE3"/>
					<stop  offset="0.2574" style="stop-color:#4BB9E7"/>
					<stop  offset="0.4628" style="stop-color:#75C9EC"/>
					<stop  offset="0.7049" style="stop-color:#AFE0F4"/>
					<stop  offset="0.975" style="stop-color:#F8FCFE"/>
					<stop  offset="1" style="stop-color:#FFFFFF"/>
				</linearGradient>
				<polygon class="st8" points="21.9,30.26 51.47,59.83 81.04,30.26 51.47,0.69 				"/>
			</g>
			<g>
				<defs>
					<polygon id="SVGID_28_" points="33.77,0 33.77,60.54 45.5,60.54 45.56,16.49 33.79,0 					"/>
				</defs>
				<clipPath id="SVGID_29_">
					<use xlink:href="#SVGID_28_"  style="overflow:visible;"/>
				</clipPath>
				
					<linearGradient id="SVGID_30_" gradientUnits="userSpaceOnUse" x1="140.0694" y1="668.0909" x2="140.929" y2="668.0909" gradientTransform="matrix(13.7127 0 0 13.7127 -1886.9619 -9131.0732)">
					<stop  offset="0" style="stop-color:#28ABE2"/>
					<stop  offset="0.0833" style="stop-color:#3BB2E5"/>
					<stop  offset="0.7214" style="stop-color:#C7E9F7"/>
					<stop  offset="1" style="stop-color:#FFFFFF"/>
				</linearGradient>
				<rect x="33.77" class="st9" width="11.79" height="60.54"/>
			</g>
			<g>
				<defs>
					<polygon id="SVGID_31_" points="33.77,0 33.77,60.54 45.5,60.54 45.56,16.49 33.79,0 					"/>
				</defs>
				<clipPath id="SVGID_32_">
					<use xlink:href="#SVGID_31_"  style="overflow:visible;"/>
				</clipPath>
				
					<linearGradient id="SVGID_33_" gradientUnits="userSpaceOnUse" x1="169.6641" y1="685.8657" x2="170.5237" y2="685.8657" gradientTransform="matrix(0 -70.9077 70.9077 0 -48593.4609 12091.2285)">
					<stop  offset="0" style="stop-color:#28ABE2"/>
					<stop  offset="0.11" style="stop-color:#33AEE3"/>
					<stop  offset="0.3021" style="stop-color:#50B5E6"/>
					<stop  offset="0.5523" style="stop-color:#7EC0EA"/>
					<stop  offset="0.5559" style="stop-color:#7FC0EA"/>
					<stop  offset="0.6788" style="stop-color:#88C4EB"/>
					<stop  offset="1" style="stop-color:#FFFFFF"/>
				</linearGradient>
				<rect x="33.77" y="0" class="st10" width="11.79" height="60.54"/>
			</g>
			<g>
				<defs>
					<path id="SVGID_34_" d="M33.85,60.54l19.68,0l11.61-8.88h-0.01c0,0,0.88-0.61,1.17-2.62c0.44-3.06-1.17-5.49-1.17-5.49h0
						l-3.18-4.22L33.85,60.54z"/>
				</defs>
				<clipPath id="SVGID_35_">
					<use xlink:href="#SVGID_34_"  style="overflow:visible;"/>
				</clipPath>
				
					<linearGradient id="SVGID_36_" gradientUnits="userSpaceOnUse" x1="156.1022" y1="682.4494" x2="156.9619" y2="682.4494" gradientTransform="matrix(37.8442 0 0 37.8442 -5873.7173 -25776.8379)">
					<stop  offset="0" style="stop-color:#28ABE2"/>
					<stop  offset="0.7794" style="stop-color:#CFECF9"/>
					<stop  offset="1" style="stop-color:#FFFFFF"/>
				</linearGradient>
				<rect x="33.85" y="39.34" class="st11" width="32.9" height="21.2"/>
			</g>
			<g>
				<defs>
					<path id="SVGID_37_" d="M33.85,60.54L33.85,60.54l19.68,0l11.61-8.88h-0.01c0,0,0.88-0.61,1.17-2.62
						c0.44-3.06-1.17-5.49-1.17-5.49h0l-3.18-4.22L33.85,60.54z"/>
				</defs>
				<clipPath id="SVGID_38_">
					<use xlink:href="#SVGID_37_"  style="overflow:visible;"/>
				</clipPath>
				
					<linearGradient id="SVGID_39_" gradientUnits="userSpaceOnUse" x1="163.0279" y1="701.2159" x2="163.8875" y2="701.2159" gradientTransform="matrix(-21.8562 37.8561 -37.8561 -21.8562 30166.3887 9191.0479)">
					<stop  offset="0" style="stop-color:#28ABE2"/>
					<stop  offset="0.7794" style="stop-color:#CFECF9"/>
					<stop  offset="1" style="stop-color:#FFFFFF"/>
				</linearGradient>
				<polygon class="st12" points="42.08,25.1 24.67,55.24 58.53,74.79 75.93,44.64 				"/>
			</g>
			<polygon class="st13" points="19.52,47.08 19.51,47.08 18.69,47.49 18.55,46.85 19.63,46.32 20.34,46.32 20.34,50.79 
				19.52,50.79 			"/>
			<path class="st13" d="M22.23,50.18c0.13,0.01,0.26,0.01,0.47-0.01c0.33-0.03,0.66-0.14,0.91-0.34c0.29-0.23,0.49-0.57,0.57-0.99
				l-0.01-0.01c-0.23,0.25-0.54,0.4-0.98,0.4c-0.78,0-1.35-0.56-1.35-1.39c0-0.85,0.66-1.6,1.62-1.6c1.04,0,1.6,0.82,1.6,1.9
				c0,0.96-0.32,1.64-0.78,2.08c-0.39,0.36-0.93,0.57-1.53,0.61c-0.19,0.02-0.39,0.02-0.51,0.01V50.18z M22.67,47.79
				c0.01,0.46,0.27,0.82,0.74,0.82c0.34,0,0.59-0.16,0.72-0.37c0.03-0.06,0.05-0.12,0.05-0.24c0.01-0.61-0.22-1.13-0.77-1.13
				C22.98,46.87,22.67,47.24,22.67,47.79"/>
			<path class="st13" d="M25.51,49.64c0-0.56,0.32-0.94,0.84-1.16v-0.02c-0.47-0.23-0.68-0.6-0.68-0.99c0-0.73,0.65-1.22,1.49-1.22
				c0.96,0,1.4,0.58,1.4,1.13c0,0.38-0.2,0.77-0.69,1.01v0.02c0.49,0.19,0.85,0.57,0.85,1.13c0,0.8-0.67,1.33-1.63,1.33
				C26.05,50.86,25.51,50.26,25.51,49.64 M27.87,49.6c0-0.45-0.34-0.7-0.83-0.84c-0.42,0.12-0.66,0.41-0.66,0.78
				c-0.01,0.38,0.28,0.72,0.75,0.72C27.57,50.26,27.87,49.98,27.87,49.6 M26.47,47.43c0,0.36,0.3,0.58,0.73,0.7
				c0.3-0.09,0.56-0.34,0.56-0.67c0-0.31-0.19-0.63-0.64-0.63C26.69,46.82,26.47,47.11,26.47,47.43"/>
			<path class="st13" d="M31.98,46.91c-0.12,0-0.26,0-0.43,0.02c-0.94,0.11-1.39,0.69-1.5,1.31h0.02c0.22-0.25,0.56-0.43,1-0.43
				c0.77,0,1.37,0.55,1.37,1.46c0,0.85-0.63,1.6-1.57,1.6c-1.09,0-1.68-0.83-1.68-1.93c0-0.86,0.31-1.56,0.78-2.01
				c0.41-0.39,0.95-0.61,1.59-0.66c0.19-0.02,0.32-0.02,0.43-0.01L31.98,46.91z M31.58,49.31c0-0.52-0.28-0.89-0.78-0.89
				c-0.32,0-0.6,0.19-0.73,0.46c-0.03,0.07-0.06,0.15-0.06,0.27c0.01,0.59,0.3,1.07,0.84,1.07C31.3,50.23,31.58,49.85,31.58,49.31"
				/>
			<path class="st14" d="M18.2,56.08v-0.52l0.53-0.49c1.05-0.98,1.55-1.51,1.55-2.1c0-0.4-0.21-0.75-0.8-0.75
				c-0.39,0-0.73,0.2-0.96,0.37L18.28,52c0.32-0.26,0.81-0.46,1.38-0.46c0.99,0,1.47,0.63,1.47,1.35c0,0.78-0.56,1.42-1.34,2.14
				l-0.39,0.34v0.01h1.84v0.7H18.2z"/>
			<path class="st14" d="M25.04,53.82c0,1.44-0.56,2.34-1.63,2.34c-1.03,0-1.58-0.94-1.59-2.3c0-1.39,0.59-2.32,1.64-2.32
				C24.54,51.53,25.04,52.5,25.04,53.82 M22.67,53.86c-0.01,1.09,0.3,1.65,0.76,1.65c0.5,0,0.76-0.61,0.76-1.68
				c0-1.04-0.25-1.65-0.76-1.65C22.98,52.18,22.67,52.74,22.67,53.86"/>
			<path class="st14" d="M25.57,56.08v-0.52l0.53-0.49c1.05-0.98,1.55-1.51,1.55-2.1c0-0.4-0.21-0.75-0.8-0.75
				c-0.39,0-0.73,0.2-0.96,0.37L25.65,52c0.32-0.26,0.81-0.46,1.38-0.46c0.99,0,1.47,0.63,1.47,1.35c0,0.78-0.56,1.42-1.34,2.14
				l-0.39,0.34v0.01h1.84v0.7H25.57z"/>
			<path class="st14" d="M31.98,52.21c-0.12,0-0.26,0-0.43,0.02c-0.94,0.11-1.39,0.69-1.5,1.31h0.02c0.22-0.25,0.56-0.43,1-0.43
				c0.77,0,1.37,0.55,1.37,1.46c0,0.85-0.63,1.6-1.57,1.6c-1.09,0-1.68-0.83-1.68-1.93c0-0.86,0.31-1.56,0.78-2.01
				c0.41-0.39,0.95-0.61,1.59-0.66c0.19-0.02,0.32-0.02,0.43-0.01L31.98,52.21z M31.58,54.61c0-0.52-0.28-0.89-0.78-0.89
				c-0.32,0-0.6,0.19-0.73,0.46c-0.03,0.07-0.06,0.15-0.06,0.27c0.01,0.59,0.3,1.07,0.84,1.07C31.3,55.52,31.58,55.15,31.58,54.61"
				/>
		</g>
	</g>
	<g>
		<polyline class="st15" points="302.76,9.08 303.17,9.05 304.33,9.03 306.15,9.13 308.52,9.44 311.36,10.08 314.57,11.15 
			318.04,12.76 321.7,15.01 321.7,12.73 321.7,10.86 321.7,9.59 321.71,9.12 334.72,9.14 334.63,62.38 321.61,62.36 321.66,35.27 
			321.52,34.43 320.79,32.4 318.97,29.91 315.59,27.69 315.58,31.06 315.57,35.87 315.56,41.54 315.55,47.48 315.54,53.11 
			315.53,57.85 315.53,61.12 315.53,62.35 302.67,62.32 		"/>
		<path class="st15" d="M128.63,40.78l0.57-6.62l1.59-6.09l2.44-5.45l3.11-4.7l3.62-3.84l3.97-2.88l4.14-1.81l4.15-0.62l7.45,0.01
			l-0.09,53.24l-11.54-0.02l0.01-6.85l-6.85-0.01L141.21,62l-12.62-0.02 M141.56,33.22l-0.3,3.38l0,3.27l0,2.39l0,1.65l0,1.05v0.58
			v0.25v0.03l6.85,0.01l0.03-21.04l-0.29,0.09l-0.78,0.34l-1.1,0.66l-1.26,1.06l-1.26,1.52l-1.1,2.07L141.56,33.22z"/>
		<polyline class="st15" points="69.58,8.46 95.74,8.5 95.72,19.67 88.54,19.66 88.47,61.73 76.18,61.71 76.25,19.63 69.56,19.62 		
			"/>
		<polyline class="st15" points="97.01,8.73 108.81,8.75 108.78,27.91 114.25,27.92 114.29,8.76 126.88,8.79 126.79,62.03 
			114.19,62 114.24,38.57 108.76,38.56 108.72,61.99 96.92,61.97 		"/>
		<polyline class="st15" points="194.78,8.91 206.58,8.93 206.55,28.09 212.02,28.1 212.06,8.94 224.65,8.96 224.55,62.2 
			211.96,62.18 212,38.74 206.53,38.73 206.48,62.17 194.68,62.15 		"/>
		<polyline class="st15" points="263.71,8.96 276.21,8.98 276.12,62.22 263.62,62.2 		"/>
		<path class="st15" d="M286.16,8.98l2.68-3.17l0.65-0.34l1.32,0.46l0.77,0.93l0.83,1l0.67,0.8L293.35,9l-2.31-0.01l-1.37-1.47
			l-1.24,1.47 M277.65,9l23.79,0.04l-0.02,10.76l-13.46-0.02l-0.02,9.87l11.66,0.02l-0.02,10.26l-11.65-0.02l-0.02,12.57l13.46,0.02
			l-0.02,9.78l-23.79-0.04L277.65,9z"/>
		<polyline class="st15" points="230.18,8.89 230.59,8.86 231.75,8.84 233.56,8.94 235.94,9.25 238.77,9.89 241.98,10.96 
			245.46,12.56 249.11,14.81 249.12,12.54 249.12,10.67 249.12,9.39 249.12,8.93 262.14,8.95 262.05,62.19 249.03,62.17 
			249.07,35.07 248.94,34.23 248.21,32.2 246.39,29.71 243.01,27.5 243,30.87 242.99,35.68 242.98,41.34 242.97,47.28 242.96,52.92 
			242.95,57.66 242.95,60.93 242.95,62.16 230.09,62.13 		"/>
		<polyline class="st15" points="161.18,8.81 161.58,8.78 162.74,8.76 164.56,8.85 166.93,9.16 169.77,9.8 172.98,10.87 
			176.45,12.48 180.11,14.73 180.11,12.46 180.12,10.58 180.12,9.31 180.12,8.84 193.14,8.86 193.04,62.1 180.02,62.08 
			180.07,34.99 179.93,34.15 179.2,32.12 177.39,29.63 174,27.41 173.99,30.78 173.99,35.59 173.98,41.26 173.96,47.2 173.96,52.83 
			173.95,57.58 173.94,60.85 173.94,62.07 161.08,62.05 		"/>
	</g>
</g>
</svg>
